    <svg id="bbc88faa-5a3b-49cf-bdbb-6c9ab11be594" data-name="Layer 1" xmlns="http://www.w3.org/2000/svg" width="150"
        height="154.88525" viewBox="350 150 250 454.88525">
        <path
            d="M753.26693,598.71334,729.03658,590.475l23.26113-118.72871-15.992-1.45382c-15.594,11.96435-36.35984,16.65481-62.99891,13.08438l42.64542,64.45274-21.745,15.34942-69.368-83.20523A20.866,20.866,0,0,1,620,466.61227v0a20.866,20.866,0,0,1,15.0905-20.05076L709.16769,425.224l86.74466,9.69214c13.11467,19.99417,13.62744,33.89954-6.33645,37.911Z"
            transform="translate(-236 -72.55738)" fill="#2f2e41" />
        <path
            d="M728.46691,644.90106h0a15.95869,15.95869,0,0,1-13.86555-21.711l12.046-30.97551c6.11869-11.59112,14.5164-10.14011,24.43261,0l4.84611,14.21526a9.17534,9.17534,0,0,1-.53485,7.176L743.64973,636.306A15.95871,15.95871,0,0,1,728.46691,644.90106Z"
            transform="translate(-236 -72.55738)" fill="#2f2e41" />
        <path
            d="M697.15218,604.33834h0a15.95869,15.95869,0,0,1-13.86555-21.711l12.046-30.97551c6.11869-11.59113,14.51641-10.14012,24.43261,0l4.84611,14.21525a9.17537,9.17537,0,0,1-.53485,7.176L712.335,595.74331A15.9587,15.9587,0,0,1,697.15218,604.33834Z"
            transform="translate(-236 -72.55738)" fill="#2f2e41" />
        <circle cx="476.55994" cy="212.13062" r="27.13799" fill="#ffb9b9" />
        <polygon points="518.721 250.415 481.406 269.799 473.652 234.907 499.336 218.915 518.721 250.415"
            fill="#ffb9b9" />
        <path
            d="M799.7892,439.76224c-37.23393-11.24605-71.01788-17.07317-95.46758-8.23832,8.42738-23.70818-7.12737-59.91146-24.23035-96.9214,7.37949-9.64677,19.14576-13.38347,32.46867-15.02282,14.5769,10.5844,24.74122,3.79091,32.46867-12.59978,16.85358-.67652,33.095,5.29186,48.94531,15.50743C781.58355,362.17339,783.814,401.25293,799.7892,439.76224Z"
            transform="translate(-236 -72.55738)" fill="#3f3d56" />
        <path
            d="M703.837,437.33921c-5.87952,3.4656-11.3058,9.30325-16.47664,16.47664-8.73817-5.349-16.42816-11.439-22.48592-18.68294a40.01122,40.01122,0,0,1-7.33032-37.42892l16.56053-53.82173a23.60967,23.60967,0,0,1,7.67755-11.38054l2.18592-1.776,21.80731,41.19159-21.80731,40.707C686.73356,420.03892,694.88267,428.6031,703.837,437.33921Z"
            transform="translate(-236 -72.55738)" fill="#3f3d56" />
        <path
            d="M711.343,478.37478h0a14.00455,14.00455,0,0,1-19.66674-10.71872L688.072,442.98155l12.59979-6.7845,15.9909,20.93355A14.00455,14.00455,0,0,1,711.343,478.37478Z"
            transform="translate(-236 -72.55738)" fill="#ffb9b9" />
        <path
            d="M739.94024,283.50047l-4.63369.13763-12.853-18.20724c-16.46951,1.70257-29.96494,8.858-41.38524,19.81828l-1.15795-7.71966a29.10153,29.10153,0,0,1,22.90286-32.81892h.00006a29.10153,29.10153,0,0,1,34.57213,23.6573Z"
            transform="translate(-236 -72.55738)" fill="#2f2e41" />
        <path
            d="M687.82806,453.82563v0a14.00456,14.00456,0,0,1,10.71872-19.66675l24.67452-3.60414,6.7845,12.59978L709.07224,459.1454A14.00455,14.00455,0,0,1,687.82806,453.82563Z"
            transform="translate(-236 -72.55738)" fill="#ffb9b9" />
        <path
            d="M804.49034,431.38118c-23.4754,1.82279-49.10633,9.14326-75.93837,19.527a37.12074,37.12074,0,0,0-8.23832-21.80731c24.37008-6.41874,46.48406-13.95144,60.09127-25.68417L772.1666,341.387l17.93046-20.35349,3.09274,1.6136a20.65228,20.65228,0,0,1,10.4691,13.14326c7.57071,29.449,10.93351,57.66486,8.62195,84.21782A10.47079,10.47079,0,0,1,804.49034,431.38118Z"
            transform="translate(-236 -72.55738)" fill="#3f3d56" />
    </svg>